# xmcd
# Track frame offsets:
# 150
# 16025
# 34074
# 51408
# 70556
# 89675
# 107804
# 127013
# 144219
# 159306
# 169880
#
# Disc length: 2509 seconds
# Revision: 0
# Processed by: cddbd v1.5.2PL0 Copyright (c) Steve Scherf et al.
# Submitted via: VisiTrax 2.11.3.279 - For more info visit www.synapsa.com
#
DISCID=8d09cb0b
DTITLE=Speace, Amy - How To Sleep In A Stormy Boat
DYEAR=2013
DGENRE=Country
TTITLE0=Amy Speace - The Fortunate Ones
TTITLE1=Amy Speace - Lullabye Under The Willow
TTITLE2=Amy Speace - How To Sleep In A Stormy Boat
TTITLE3=Amy Speace and John Fulbright - The Sea and The Shore
TTITLE4=Amy Speace - In Salida
TTITLE5=Amy Speace - Bring Me Back My Heart
TTITLE6=Amy Speace - Hunter Moon
TTITLE7=Amy Speace - Left Me Hanging
TTITLE8=Amy Speace - Perfume
TTITLE9=Amy Speace - Feathers and Wishbones
TTITLE10=Amy Speace - Hesitate
EXTD=
EXTT0=
EXTT1=
EXTT2=
EXTT3=
EXTT4=
EXTT5=
EXTT6=
EXTT7=
EXTT8=
EXTT9=
EXTT10=
PLAYORDER=
